<svg width="23" height="22" viewBox="0 0 23 22" fill="none" xmlns="http://www.w3.org/2000/svg">
<path d="M18.6112 4.125H3.48621C3.30387 4.125 3.129 4.19743 3.00007 4.32636C2.87114 4.4553 2.79871 4.63016 2.79871 4.8125C2.79871 4.99484 2.87114 5.1697 3.00007 5.29864C3.129 5.42757 3.30387 5.5 3.48621 5.5H4.17371V17.875C4.17371 18.2397 4.31857 18.5894 4.57643 18.8473C4.8343 19.1051 5.18403 19.25 5.54871 19.25H16.5487C16.9134 19.25 17.2631 19.1051 17.521 18.8473C17.7788 18.5894 17.9237 18.2397 17.9237 17.875V5.5H18.6112C18.7935 5.5 18.9684 5.42757 19.0973 5.29864C19.2263 5.1697 19.2987 4.99484 19.2987 4.8125C19.2987 4.63016 19.2263 4.4553 19.0973 4.32636C18.9684 4.19743 18.7935 4.125 18.6112 4.125ZM16.5487 17.875H5.54871V5.5H16.5487V17.875ZM6.92371 2.0625C6.92371 1.88016 6.99614 1.7053 7.12507 1.57636C7.254 1.44743 7.42887 1.375 7.61121 1.375H14.4862C14.6685 1.375 14.8434 1.44743 14.9723 1.57636C15.1013 1.7053 15.1737 1.88016 15.1737 2.0625C15.1737 2.24484 15.1013 2.4197 14.9723 2.54864C14.8434 2.67757 14.6685 2.75 14.4862 2.75H7.61121C7.42887 2.75 7.254 2.67757 7.12507 2.54864C6.99614 2.4197 6.92371 2.24484 6.92371 2.0625Z" fill="#9E78CF"/>
</svg>
